# xmcd
#
# Track frame offsets:
#	150
#	10588
#	25064
#	41413
#	56610
#	76146
#	90667
#	104628
#	126557
#	143739
#	155654
#	166611
#	183399
#	200847
#
# Disc length: 2857 seconds
#
# Revision: 0
# Processed by: cddbd v1.5.2PL0 Copyright (c) Steve Scherf et al.
# Submitted via: EZCDAudioConverter 1.2.3.1
#
DISCID=b30b270e
DTITLE=Milionário e José Rico - Box Milionário and José Rico - Nossa história - 
DTITLE=vol1
DYEAR=1900
DGENRE=Sertanejo
TTITLE0=A carta
TTITLE1=Paixão de um homem
TTITLE2=Sonho de um caminhoneiro
TTITLE3=Duas camisas (você agora vai decidir)
TTITLE4=Filho de ninguém
TTITLE5=Deguinho (ao vivo)
TTITLE6=A fossa
TTITLE7=Outra noite sem meu bem
TTITLE8=Meu mundo vazio (sereia)
TTITLE9=Nasci pra te amar
TTITLE10=Apaixonado
TTITLE11=Esquina de adeus
TTITLE12=Homens
TTITLE13=Pombinha mensageira
EXTD=
EXTT0=
EXTT1=
EXTT2=
EXTT3=
EXTT4=
EXTT5=
EXTT6=
EXTT7=
EXTT8=
EXTT9=
EXTT10=
EXTT11=
EXTT12=
EXTT13=
PLAYORDER=
